<?xml version="1.0" encoding="UTF-8" standalone="no"?> <svg id="Layer_1" data-name="Layer 1" xmlns="http://www.w3.org/2000/svg" viewBox="0 0 128 128"><defs><style>.cls-1{fill:#2d3e50;}</style></defs><title>b</title><path class="cls-1" d="M126.32268,57.41557a62.316,62.316,0,0,0-12.09543-30.85325,63.25716,63.25716,0,0,0-4.25769-5.11222A62.51839,62.51839,0,0,0,64.0015,1.334q-2.32526,0-4.6085.16791A62.60066,62.60066,0,0,0,1.36248,62.111q-.03149.94-.03,1.889A62.63476,62.63476,0,0,0,59.393,126.49809q2.28474.16641,4.6085.16791a62.51839,62.51839,0,0,0,45.96806-20.11609,63.25717,63.25717,0,0,0,4.25769-5.11222A62.34511,62.34511,0,0,0,126.6675,64.072V64A62.85477,62.85477,0,0,0,126.32268,57.41557ZM109.96956,31.92639A55.75935,55.75935,0,0,1,119.81022,58.573Q110.064,60.18756,99.934,61.18752A55.7153,55.7153,0,0,1,109.96956,31.92639ZM64.0015,7.93042a55.948,55.948,0,0,1,41.70736,18.63189A62.3311,62.3311,0,0,0,93.3076,61.76921q-7.15563.55769-14.46415.78257a109.19736,109.19736,0,0,0-8.63533-41.35956,109.78374,109.78374,0,0,0-6.69535-13.2588C63.67467,7.93042,63.83958,7.93042,64.0015,7.93042Zm-7.94569.5637A102.74567,102.74567,0,0,1,72.247,62.68971q-1.70459.018-3.41815.018-6.66088,0-13.21383-.27286c-.61166-14.03238-9.48386-27.05732-25.12936-36.826q-2.24428-1.39876-4.62048-2.68055A55.90763,55.90763,0,0,1,56.05581,8.49412ZM21.13375,27.8936q3.04035,1.55164,5.85883,3.3102C40.48226,39.62623,48.22406,50.53131,48.99165,62.093a302.99156,302.99156,0,0,1-40.607-5.25015A55.81745,55.81745,0,0,1,21.13375,27.8936ZM7.92892,64c0-.17091,0-.34482.003-.51573a308.12357,308.12357,0,0,0,40.73589,5.20219c-1.73007,10.52428-9.274,20.36795-21.67523,28.10975q-2.81548,1.75853-5.85883,3.3102A55.81912,55.81912,0,0,1,7.92892,64Zm48.12689,55.50588a55.90763,55.90763,0,0,1-30.19062-14.43417q2.3747-1.27729,4.62048-2.68055C44.83889,93.429,53.48921,81.72938,55.29421,69.02528q6.73286.27885,13.53466.27885,1.6506,0,3.29221-.018A102.66016,102.66016,0,0,1,56.05581,119.50588Zm7.94569.5637c-.16192,0-.32683,0-.48874-.003a109.78374,109.78374,0,0,0,6.69535-13.2588,108.94789,108.94789,0,0,0,8.52439-37.65057q7.38949-.22038,14.689-.77359a62.32118,62.32118,0,0,0,12.28733,33.05406A55.948,55.948,0,0,1,64.0015,120.06958Zm45.96806-23.996A55.69623,55.69623,0,0,1,99.994,67.81692q10.142-.97146,20.06211-2.59358A55.73853,55.73853,0,0,1,109.96956,96.07359Z"/></svg>